<svg width="481.667" height="303" viewBox="0 0 481.667 303"><title>SXDrinks</title><desc>The logo of SXDrinks. It is a martini glass</desc><path fill="none" d="M644.98 324.11h322.778V428H644.98z"/><path d="M654.1 324.11c1.36 0 2.4 1.038 2.4 2.398v51.2c0 1.36-1.04 2.4-2.4 2.4-1.36 0-2.4-1.04-2.4-2.4v-51.2c0-1.36 1.04-2.4 2.4-2.4zm10 0c1.2.08 2.48.16 3.68.318 2.96.48 5.92 1.36 8.642 2.8 2.72 1.44 5.2 3.44 7.12 5.92 2.16 2.72 3.6 5.92 4.48 9.2.88 3.28 1.2 6.64 1.2 9.92v.16c0 3.36-.32 6.8-1.2 10.16-.96 3.44-2.48 6.802-4.8 9.6-3.04 3.682-6.88 5.842-10.32 6.962-1.92.64-3.92 1.04-5.92 1.12h-6.08c-1.36 0-2.4-1.04-2.4-2.4s1.04-2.4 2.4-2.4h5.84c1.6-.08 3.2-.4 4.72-.88 2.64-.88 5.68-2.56 8.08-5.44 1.84-2.16 3.12-4.88 3.92-7.76.8-2.8 1.12-5.76 1.12-8.8v-.16c0-2.96-.32-5.92-1.04-8.72-.72-2.72-1.92-5.28-3.6-7.44-1.52-1.92-3.44-3.52-5.6-4.64-2.16-1.12-4.56-1.84-7.12-2.24-1.04-.16-2-.24-3.04-.32h-2.72c-1.36 0-2.4-1.04-2.4-2.4s1.04-2.4 2.4-2.4h2.8l-.16-.16zm39.2.16c1.36 0 2.4 1.04 2.4 2.4v51.2c0 1.36-1.04 2.4-2.4 2.4s-2.4-1.04-2.4-2.4v-51.2c0-1.36 1.04-2.4 2.4-2.4zm20.64.08c8.96 0 14.96 4.88 14.96 14.56 0 9.6-6.08 14.24-14.8 14.24h-12.32c-1.36 0-2.4-1.04-2.4-2.4 0-1.36 1.04-2.4 2.4-2.4h12.32c8 0 10-4.56 10-9.52 0-5.6-2.48-9.76-10.16-9.76H711.3c-1.36 0-2.4-1.04-2.4-2.4s1.04-2.4 2.4-2.4h12.64v.08zm-8.4 31.12c.88-.96 2.4-.96 3.36-.08l21.92 20.8c.96.88.96 2.4.08 3.36s-2.4.96-3.36.08l-21.92-20.8c-.96-.88-.96-2.4-.08-3.36zm39.68-31.2c1.36 0 2.4 1.04 2.4 2.4v51.2c0 1.36-1.04 2.4-2.4 2.4s-2.4-1.04-2.4-2.4v-51.2c-.002-1.36 1.038-2.4 2.4-2.4zm18.478 56c-1.36 0-2.4-1.04-2.4-2.4v-35.2c0-1.36 1.04-2.4 2.4-2.4s2.4 1.04 2.4 2.4v35.2c0 1.36-1.04 2.4-2.4 2.4zm-1.28-55.6c1.12-.72 2.64-.4 3.36.72l34.64 51.2c.72 1.12.4 2.64-.72 3.36s-2.64.4-3.36-.72l-34.64-51.2c-.72-1.12-.4-2.64.72-3.36zm35.92 39.6c-1.36 0-2.4-1.04-2.4-2.4v-35.2c0-1.36 1.04-2.4 2.4-2.4s2.4 1.04 2.4 2.4v35.2c0 1.36-1.04 2.4-2.4 2.4zm18.32 16c-1.36 0-2.4-1.04-2.4-2.4v-51.2c0-1.36 1.04-2.4 2.4-2.4s2.4 1.04 2.4 2.4v51.2c0 1.36-1.04 2.4-2.4 2.4zm4.32-28.72c-.96-.96-.96-2.48 0-3.44l23.28-23.28c.96-.96 2.48-.96 3.44 0s.96 2.48 0 3.44l-23.28 23.28c-.96.96-2.48.96-3.44 0zm5.2 1.68c.96-.96 2.48-.96 3.44 0l22.88 22.88c.96.96.96 2.48 0 3.44s-2.48.96-3.44 0l-22.88-22.88c-.96-.96-.96-2.48 0-3.44zm71.76 12c0 4.08-1.84 7.76-4.48 10.24-1.84 1.76-4.08 2.96-6.4 3.68-2.32.72-4.72 1.04-7.04 1.04h-.08c-2.72 0-5.44-.4-8-1.28-2.64-.88-5.12-2.32-7.12-4.4-2.8-2.8-4.4-6.64-4.4-10.64v-.48c.08-1.36 1.2-2.4 2.56-2.32 1.36.08 2.4 1.2 2.4 2.56v.32c0 2.64 1.12 5.36 3.04 7.28 1.44 1.44 3.28 2.56 5.28 3.28 2 .72 4.16 1.04 6.4 1.04h.08c1.92 0 3.76-.24 5.52-.8 1.76-.56 3.36-1.44 4.64-2.64 1.84-1.76 2.96-4.32 2.96-6.8v-.16c0-1.36 1.04-2.48 2.4-2.48 1.36 0 2.48 1.04 2.48 2.4v.24l-.24-.08zm-9.92-33.68c-2.48-1.84-5.52-2.4-7.92-2.4h-.16c-1.52 0-2.96.24-4.32.72-1.36.48-2.64 1.2-3.6 2.16-1.76 1.76-2.08 3.84-2.16 4.8-.08 1.36-1.2 2.4-2.56 2.32-1.36-.08-2.4-1.2-2.32-2.56.08-1.6.64-5.04 3.44-7.92 1.52-1.602 3.44-2.72 5.44-3.44 1.92-.64 3.92-.88 5.84-.88h.16c3.76 0 7.6 1.04 10.72 3.36 3.2 2.4 5.6 6.32 5.84 10.72.08 1.36-.96 2.48-2.32 2.56-1.36.08-2.48-.96-2.56-2.32-.16-2.96-1.84-5.6-3.92-7.12h.4zm-15.04 12.72c2.4 2.48 5.6 3.84 7.68 4.56 3.44 1.28 7.92 2.32 11.44 4.88.8.56 1.6 1.2 2.32 1.92.88.96.8 2.48-.16 3.36-.96.88-2.48.8-3.36-.16-.48-.48-1.04-.96-1.6-1.36-2.8-2-6.56-2.8-10.32-4.16-3.36-1.2-6.8-2.96-9.52-5.76-.8-.88-1.52-1.84-2.16-2.88-.72-1.12-.4-2.56.72-3.28 1.12-.72 2.56-.4 3.28.72.48.72 1.04 1.44 1.68 2.08v.08zm-285.375-57.23c0 6.12-2.76 11.64-6.72 15.358-2.76 2.64-6.12 4.44-9.6 5.52-3.48 1.08-7.08 1.56-10.56 1.56h-.12c-4.08 0-8.16-.6-12-1.92-3.96-1.32-7.68-3.478-10.68-6.6-4.2-4.198-6.6-9.958-6.6-15.958v-.72c.12-2.04 1.8-3.6 3.84-3.48 2.04.12 3.6 1.8 3.6 3.84v.48c0 3.96 1.68 8.04 4.56 10.92 2.16 2.16 4.92 3.84 7.92 4.92s6.24 1.56 9.6 1.56h.12c2.88 0 5.64-.36 8.28-1.2 2.64-.84 5.04-2.16 6.958-3.96 2.76-2.64 4.44-6.48 4.44-10.2v-.24c0-2.04 1.56-3.72 3.6-3.72s3.72 1.56 3.72 3.6v.36l-.35-.12zm-14.88-50.52c-3.72-2.76-8.28-3.6-11.88-3.6h-.24c-2.28 0-4.44.36-6.48 1.08-2.04.722-3.958 1.8-5.4 3.24-2.64 2.64-3.12 5.76-3.24 7.2-.12 2.04-1.8 3.6-3.84 3.48-2.04-.12-3.6-1.8-3.48-3.84.12-2.4.96-7.56 5.16-11.88 2.28-2.4 5.16-4.08 8.16-5.16 2.88-.96 5.88-1.32 8.76-1.32h.24c5.64 0 11.4 1.56 16.08 5.04 4.8 3.6 8.4 9.48 8.76 16.08.12 2.04-1.44 3.72-3.48 3.84-2.04.12-3.72-1.44-3.84-3.48-.24-4.44-2.76-8.4-5.88-10.68h.6zm-22.56 19.082c3.6 3.72 8.4 5.76 11.52 6.84 5.16 1.92 11.88 3.48 17.16 7.318 1.2.84 2.4 1.8 3.48 2.88 1.32 1.44 1.2 3.72-.24 5.04-1.44 1.32-3.72 1.2-5.04-.24-.72-.72-1.56-1.44-2.4-2.04-4.2-3-9.84-4.198-15.48-6.24-5.04-1.798-10.2-4.438-14.28-8.638-1.2-1.32-2.28-2.76-3.24-4.32-1.08-1.68-.6-3.84 1.08-4.92s3.84-.6 4.92 1.08c.72 1.08 1.56 2.16 2.52 3.12v.12zm52.2 53.158c-1.44-1.32-1.56-3.6-.24-5.04l28.68-30.96c1.32-1.44 3.6-1.56 5.04-.24s1.56 3.6.24 5.04l-28.68 30.96c-1.32 1.44-3.6 1.558-5.04.24zm79.917-.12c-1.44 1.32-3.72 1.2-5.04-.24l-70.197-76.8c-1.32-1.44-1.2-3.72.24-5.04s3.72-1.2 5.04.24l70.197 76.8c1.32 1.44 1.2 3.718-.24 5.04zm-32.038-51.958c-1.44-1.32-1.56-3.6-.24-5.04l22.8-24.72c1.32-1.44 3.6-1.56 5.04-.24s1.56 3.6.24 5.04l-22.8 24.72c-1.32 1.44-3.6 1.56-5.04.24z"/><path fill="#1CAEE6" d="M675.782 75.452l-62.817 31.902c-5.514 2.8-6.766 8.172-5.75 14.01.898 5.167 4.366 7.548 8.814 9.24 11.41 4.343 22.83 8.68 34.25 13.024 26.13 9.945 52.52 19.427 78.35 30.12 7.34 3.04 14.03 8.52 17.9 16.213 3.86 7.68 7.73 15.35 11.6 23.01 5.06 10.02 10.14 20.03 15.25 30.02 4.36 8.52 10.68 17.09 6.52 26.91-3.05 7.2-9.43 12.51-15.08 17.64-2.29 2.08-8.07 6.92-4.17 10.21 3.93 3.32 12.01-1.01 15.79-2.63 6.59-2.81 13-6.05 19.31-9.44 8.14-4.38 16.4-8.73 24.78-12.64 5.55-2.59 11.01-5.37 16.37-8.33 4.753-2.63 12.42-6.04 14.96-11.24 2.6-5.32-3.976-5.96-7.43-5.45-7.628 1.11-14.84 3.33-22.65 2.79-11.28-.78-15.13-9.61-19.61-18.53-5.01-9.98-10.07-19.93-15.147-29.88-4.177-8.19-8.366-16.38-12.558-24.57-.95-1.85-1.9-3.71-2.85-5.57-2.85-5.58-1.89-13.86-.58-19.71 2.192-9.82 5.124-19.53 7.755-29.24 7.82-28.88 15.755-57.74 23.67-86.6 1.22-4.43 1.705-7.78-.41-12.25-3.457-7.28-11.16-10.46-18.3-6.83l-19.143 9.726-67.42 34.24c-2.875 1.46-.344 5.775 2.523 4.318 25.965-13.19 51.93-26.37 77.896-39.56l7.48-3.794c2.89-1.468 5.152-2.355 8.304-.545 3.11 1.788 6.15 6.45 5.15 10.11-2.732 10.01-5.49 20.015-8.23 30.02-7.856 28.66-15.92 57.278-23.337 86.054-1.897 7.35-2.656 14.93-1.17 22.44 1.09 5.54 5.09 11.173 7.615 16.11 9.59 18.75 19.19 37.49 28.566 56.344 8.37 16.825 27.48 12.857 42.46 10 1.106-.21 2.2-.37 3.33-.37.69 0 .223-2.03-.844-.785-2.186 2.554-5.47 4.32-8.305 6.04-6.12 3.71-12.56 6.933-19.015 10.022-8.34 3.99-16.723 8.09-24.82 12.55-5.36 2.95-10.83 5.725-16.384 8.303-3.4 1.58-6.866 3.045-10.44 4.18-1.19.38-2.43.73-3.68.827-.887.07-.256 1.74.5.79 4.18-5.268 10.06-9.09 14.374-14.316 5.07-6.133 8.043-13.25 6.93-21.266-.6-4.3-3.07-8.2-5.02-11.98-2.55-4.94-5.07-9.89-7.6-14.84-5.016-9.844-10-19.7-14.98-29.56-3.09-6.12-6.167-12.25-9.257-18.37-3.745-7.42-12.12-12.39-19.53-15.455-10.216-4.23-20.61-8.053-30.934-12.01-27.238-10.444-54.51-20.793-81.77-31.164-1.188-.45-2.277-.75-3.22-1.64-3.027-2.852-2.9-10.024.91-11.96l9.423-4.784 41.234-20.94 12.92-6.564c2.873-1.46.342-5.773-2.52-4.316z"/><path fill="#FF8F15" d="M649.013 40.215l84.203 74.24c2.408 2.124 5.958-1.4 3.535-3.535-28.06-24.747-56.13-49.494-84.2-74.24-2.41-2.124-5.96 1.4-3.53 3.535z"/><path fill="#14ED65" d="M727.94 93.676c18.185-1.483 28.85 19.713 16.11 33.08-5.502 5.774-14.428 6.948-21.568 3.9-9.29-3.968-13.127-14.5-10.467-23.847.885-3.11-3.94-4.43-4.82-1.33-6.75 23.71 20.654 41.11 39.417 25.71 8-6.56 10.018-18.28 6.338-27.59-3.973-10.05-14.47-15.8-25.01-14.94-3.19.26-3.216 5.26 0 5z"/><path d="M272.603 107.98c0 6.12-2.76 11.64-6.72 15.36-2.76 2.64-6.12 4.44-9.6 5.52-3.48 1.08-7.08 1.56-10.56 1.56h-.12c-4.08 0-8.16-.6-12-1.92-3.96-1.32-7.68-3.48-10.68-6.6-4.2-4.2-6.6-9.96-6.6-15.96v-.72c.12-2.04 1.8-3.6 3.84-3.478 2.04.12 3.6 1.8 3.6 3.84v.48c0 3.96 1.68 8.04 4.56 10.92 2.16 2.16 4.92 3.84 7.92 4.92s6.24 1.56 9.6 1.56h.12c2.88 0 5.64-.36 8.28-1.2 2.64-.84 5.04-2.16 6.958-3.96 2.76-2.64 4.44-6.48 4.44-10.2v-.24c0-2.04 1.56-3.72 3.6-3.72s3.72 1.56 3.72 3.6v.36l-.35-.12zm-14.88-50.517c-3.72-2.76-8.28-3.6-11.88-3.6h-.24c-2.28 0-4.44.36-6.48 1.08-2.04.72-3.958 1.8-5.4 3.24-2.64 2.64-3.12 5.76-3.24 7.2-.12 2.04-1.8 3.6-3.84 3.48-2.04-.12-3.6-1.8-3.48-3.84.12-2.4.96-7.56 5.16-11.88 2.28-2.4 5.16-4.08 8.16-5.16 2.88-.96 5.88-1.32 8.76-1.32h.24c5.64 0 11.4 1.56 16.08 5.04 4.8 3.6 8.4 9.48 8.76 16.08.12 2.04-1.44 3.72-3.48 3.84-2.04.12-3.72-1.44-3.84-3.48-.24-4.44-2.76-8.4-5.88-10.68h.6zm-22.56 19.08c3.6 3.72 8.4 5.76 11.52 6.84 5.16 1.92 11.88 3.478 17.16 7.318 1.2.84 2.4 1.8 3.48 2.88 1.32 1.44 1.2 3.72-.24 5.04s-3.72 1.2-5.04-.24c-.72-.72-1.56-1.43-2.4-2.04-4.2-3-9.84-4.2-15.48-6.24-5.04-1.8-10.2-4.44-14.28-8.64-1.2-1.32-2.28-2.76-3.24-4.32-1.08-1.68-.6-3.84 1.08-4.92s3.84-.6 4.92 1.08c.72 1.08 1.56 2.16 2.52 3.12v.13zm52.2 53.157c-1.44-1.32-1.56-3.6-.24-5.04l28.68-30.96c1.32-1.44 3.6-1.56 5.04-.24s1.56 3.6.24 5.04l-28.68 30.96c-1.32 1.44-3.6 1.56-5.04.24zm79.917-.12c-1.44 1.32-3.72 1.2-5.04-.24l-70.197-76.796c-1.32-1.44-1.2-3.72.24-5.04 1.44-1.32 3.72-1.2 5.04.24l70.197 76.797c1.32 1.44 1.2 3.72-.24 5.04zm-32.038-51.957c-1.44-1.32-1.56-3.6-.24-5.04l22.8-24.72c1.32-1.44 3.6-1.56 5.04-.24s1.56 3.6.24 5.04l-22.8 24.72c-1.32 1.44-3.6 1.56-5.04.24z"/><path fill="#1CAEE6" d="M77.782 69.452c-20.94 10.634-41.878 21.268-62.818 31.9-5.514 2.8-6.766 8.174-5.75 14.012.898 5.166 4.367 7.546 8.815 9.24 11.41 4.342 22.83 8.678 34.24 13.023 26.13 9.945 52.52 19.426 78.35 30.12 7.34 3.04 14.03 8.52 17.9 16.213 3.86 7.67 7.73 15.34 11.6 23.006 5.06 10.018 10.14 20.028 15.25 30.02 4.36 8.522 10.68 17.087 6.52 26.912-3.05 7.197-9.43 12.51-15.08 17.638-2.29 2.078-8.065 6.922-4.164 10.212 3.94 3.32 12.01-1.016 15.796-2.63 6.6-2.81 13.006-6.047 19.316-9.44 8.14-4.38 16.4-8.73 24.776-12.64 5.55-2.59 11.02-5.37 16.38-8.332 4.755-2.63 12.422-6.043 14.96-11.24 2.602-5.327-3.973-5.958-7.43-5.454-7.625 1.11-14.84 3.332-22.65 2.788-11.278-.783-15.13-9.612-19.61-18.536-5.01-9.98-10.074-19.934-15.144-29.883-4.177-8.19-8.366-16.38-12.558-24.57-.95-1.85-1.9-3.71-2.85-5.57-2.85-5.58-1.89-13.86-.58-19.71 2.19-9.82 5.12-19.53 7.76-29.24 7.82-28.88 15.75-57.74 23.66-86.59 1.215-4.43 1.703-7.78-.415-12.25-3.457-7.28-11.16-10.46-18.3-6.83-6.38 3.24-12.76 6.48-19.144 9.73-22.476 11.42-44.95 22.83-67.42 34.24-2.877 1.46-.346 5.78 2.52 4.32 25.96-13.19 51.93-26.37 77.894-39.56l7.48-3.792c2.89-1.466 5.16-2.353 8.31-.543 3.11 1.786 6.146 6.45 5.15 10.11-2.736 10.01-5.49 20.014-8.235 30.02-7.852 28.66-15.92 57.277-23.332 86.053-1.895 7.355-2.655 14.933-1.17 22.444 1.09 5.54 5.09 11.173 7.62 16.11 9.59 18.745 19.19 37.488 28.563 56.34 8.37 16.825 27.48 12.857 42.46 10 1.11-.21 2.2-.364 3.33-.37.69-.004.227-2.03-.84-.79-2.183 2.56-5.47 4.32-8.3 6.04-6.125 3.71-12.56 6.938-19.02 10.027-8.34 3.99-16.726 8.092-24.823 12.55-5.367 2.95-10.836 5.726-16.39 8.304-3.403 1.58-6.864 3.04-10.44 4.18-1.192.38-2.43.725-3.68.82-.885.07-.254 1.737.5.79 4.18-5.266 10.06-9.09 14.376-14.314 5.07-6.134 8.045-13.25 6.93-21.27-.6-4.3-3.07-8.193-5.02-11.98-2.54-4.94-5.07-9.89-7.59-14.84-5.018-9.84-10-19.7-14.98-29.56-3.09-6.12-6.17-12.242-9.26-18.36-3.745-7.42-12.12-12.387-19.53-15.455-10.215-4.23-20.61-8.06-30.933-12.016-27.234-10.44-54.506-20.79-81.77-31.16-1.184-.45-2.274-.75-3.216-1.64-3.03-2.854-2.9-10.026.906-11.96l9.425-4.786 41.24-20.94 12.92-6.57c2.88-1.46.35-5.78-2.52-4.32z"/><path fill="#FF8F15" d="M51.013 34.215l84.203 74.24c2.408 2.124 5.958-1.4 3.535-3.535-28.06-24.747-56.13-49.494-84.2-74.24-2.41-2.124-5.96 1.4-3.53 3.535z"/><path fill="#14ED65" d="M129.94 87.676c18.185-1.483 28.85 19.713 16.11 33.08-5.5 5.774-14.428 6.95-21.568 3.9-9.29-3.967-13.128-14.498-10.466-23.846.885-3.107-3.94-4.425-4.82-1.33-6.752 23.714 20.654 41.112 39.417 25.717 7.998-6.562 10.018-18.277 6.338-27.583-3.97-10.05-14.46-15.797-25.01-14.938-3.19.26-3.21 5.262 0 5z"/><path fill="none" d="M210.98 153.845h322.778v103.89H210.98z"/><path d="M220.1 153.844c1.36 0 2.4 1.04 2.4 2.4v51.202c0 1.36-1.04 2.4-2.4 2.4-1.36 0-2.4-1.04-2.4-2.4v-51.202c0-1.36 1.04-2.4 2.4-2.4zm10 0c1.2.08 2.48.16 3.68.32 2.96.48 5.92 1.36 8.642 2.8 2.72 1.44 5.2 3.44 7.12 5.92 2.16 2.72 3.6 5.92 4.48 9.2.88 3.28 1.2 6.64 1.2 9.92v.16c0 3.36-.32 6.8-1.2 10.16-.96 3.44-2.48 6.8-4.8 9.6-3.04 3.68-6.88 5.84-10.32 6.96-1.92.64-3.92 1.04-5.92 1.12h-6.08c-1.36 0-2.4-1.04-2.4-2.4 0-1.36 1.04-2.4 2.4-2.4h5.84c1.6-.08 3.2-.4 4.72-.88 2.64-.88 5.68-2.56 8.08-5.44 1.84-2.16 3.12-4.88 3.92-7.76.8-2.8 1.12-5.76 1.12-8.8v-.16c0-2.96-.32-5.92-1.04-8.72-.72-2.72-1.92-5.28-3.6-7.44-1.52-1.92-3.44-3.52-5.6-4.64-2.16-1.12-4.56-1.84-7.12-2.24-1.04-.16-2-.24-3.04-.32h-2.72c-1.36 0-2.4-1.04-2.4-2.4s1.04-2.4 2.4-2.4h2.8l-.16-.16zm39.2.16c1.36 0 2.4 1.04 2.4 2.4v51.202c0 1.36-1.04 2.4-2.4 2.4s-2.4-1.04-2.4-2.4v-51.202c0-1.36 1.04-2.4 2.4-2.4zm20.64.08c8.96 0 14.96 4.88 14.96 14.56 0 9.6-6.08 14.24-14.8 14.24h-12.32c-1.36 0-2.4-1.04-2.4-2.4s1.04-2.4 2.4-2.4h12.32c8 0 10-4.56 10-9.52 0-5.6-2.48-9.76-10.16-9.76H277.3c-1.36 0-2.4-1.04-2.4-2.4s1.04-2.4 2.4-2.4h12.64v.08zm-8.4 31.12c.88-.96 2.4-.96 3.36-.08l21.92 20.8c.96.88.96 2.4.08 3.36s-2.4.96-3.36.08l-21.92-20.8c-.96-.88-.96-2.4-.08-3.36zm39.68-31.2c1.36 0 2.4 1.04 2.4 2.4v51.202c0 1.36-1.04 2.4-2.4 2.4s-2.4-1.04-2.4-2.4v-51.202c-.002-1.36 1.038-2.4 2.4-2.4zm18.478 56c-1.36 0-2.4-1.04-2.4-2.4v-35.2c0-1.36 1.04-2.4 2.4-2.4s2.4 1.04 2.4 2.4v35.2c0 1.36-1.04 2.4-2.4 2.4zm-1.28-55.6c1.12-.72 2.64-.4 3.36.72l34.64 51.2c.72 1.12.4 2.64-.72 3.36-1.12.72-2.64.4-3.36-.72l-34.64-51.2c-.72-1.12-.4-2.64.72-3.36zm35.92 39.6c-1.36 0-2.4-1.04-2.4-2.4v-35.2c0-1.36 1.04-2.4 2.4-2.4s2.4 1.04 2.4 2.4v35.2c0 1.36-1.04 2.4-2.4 2.4zm18.32 16c-1.36 0-2.4-1.04-2.4-2.4v-51.2c0-1.36 1.04-2.4 2.4-2.4s2.4 1.04 2.4 2.4v51.2c0 1.36-1.04 2.4-2.4 2.4zm4.32-28.72c-.96-.96-.96-2.48 0-3.44l23.28-23.28c.96-.96 2.48-.96 3.44 0s.96 2.48 0 3.44l-23.28 23.28c-.96.96-2.48.96-3.44 0zm5.2 1.68c.96-.96 2.48-.96 3.44 0l22.88 22.88c.96.96.96 2.48 0 3.44s-2.48.96-3.44 0l-22.88-22.88c-.96-.96-.96-2.48 0-3.44zm71.76 12c0 4.08-1.84 7.76-4.48 10.24-1.84 1.76-4.08 2.96-6.4 3.68-2.32.72-4.72 1.04-7.04 1.04h-.08c-2.72 0-5.44-.4-8-1.28-2.64-.88-5.12-2.32-7.12-4.4-2.8-2.8-4.4-6.64-4.4-10.64v-.48c.08-1.36 1.2-2.4 2.56-2.32 1.36.08 2.4 1.2 2.4 2.56v.32c0 2.64 1.12 5.36 3.04 7.28 1.44 1.44 3.28 2.56 5.28 3.28s4.16 1.04 6.4 1.04h.08c1.92 0 3.76-.24 5.52-.8 1.76-.56 3.36-1.44 4.64-2.64 1.84-1.76 2.96-4.32 2.96-6.8v-.16c0-1.36 1.04-2.48 2.4-2.48 1.36 0 2.48 1.04 2.48 2.4v.24l-.24-.08zm-9.92-33.68c-2.48-1.84-5.52-2.4-7.92-2.4h-.16c-1.52 0-2.96.24-4.32.72-1.36.48-2.64 1.2-3.6 2.16-1.76 1.76-2.08 3.84-2.16 4.8-.08 1.36-1.2 2.4-2.56 2.32-1.36-.08-2.4-1.2-2.32-2.56.08-1.6.64-5.04 3.44-7.92 1.52-1.6 3.44-2.72 5.44-3.44 1.92-.64 3.92-.88 5.84-.88h.16c3.76 0 7.6 1.04 10.72 3.36 3.2 2.4 5.6 6.32 5.84 10.72.08 1.36-.96 2.48-2.32 2.56-1.36.08-2.48-.96-2.56-2.32-.16-2.96-1.84-5.6-3.92-7.12h.4zm-15.04 12.72c2.4 2.48 5.6 3.84 7.68 4.56 3.44 1.28 7.92 2.32 11.44 4.88.8.56 1.6 1.2 2.32 1.92.88.96.8 2.48-.16 3.36s-2.48.8-3.36-.16c-.48-.48-1.04-.96-1.6-1.36-2.8-2-6.56-2.8-10.32-4.16-3.36-1.2-6.8-2.96-9.52-5.76-.8-.88-1.52-1.84-2.16-2.88-.72-1.12-.4-2.56.72-3.28 1.12-.72 2.56-.4 3.28.72.48.72 1.04 1.44 1.68 2.08v.08z"/></svg>