<?xml version="1.0" encoding="utf-8"?>
<!DOCTYPE svg PUBLIC "-//W3C//DTD SVG 1.1//EN" "http://www.w3.org/Graphics/SVG/1.1/DTD/svg11.dtd">
<svg version="1.1" id="Layer_1" xmlns="http://www.w3.org/2000/svg" xmlns:xlink="http://www.w3.org/1999/xlink" x="0px" y="0px"
	 width="481.667px" height="303px" viewBox="0 0 481.667 303" enable-background="new 0 0 481.667 303" xml:space="preserve">
<g>
	<rect x="644.98" y="324.11" fill="none" width="322.778" height="103.889"/>
	<path d="M654.1,324.109c1.36,0,2.4,1.039,2.4,2.399v51.201c0,1.36-1.04,2.4-2.4,2.4c-1.36,0-2.4-1.04-2.4-2.4v-51.201
		C651.7,325.148,652.74,324.109,654.1,324.109z M664.101,324.109c1.2,0.08,2.48,0.16,3.68,0.319c2.96,0.479,5.92,1.36,8.641,2.8
		c2.72,1.44,5.2,3.44,7.12,5.92c2.16,2.721,3.6,5.921,4.48,9.201c0.88,3.279,1.2,6.64,1.2,9.92v0.16c0,3.359-0.32,6.8-1.2,10.16
		c-0.96,3.439-2.48,6.801-4.8,9.6c-3.04,3.681-6.88,5.841-10.32,6.961c-1.92,0.64-3.92,1.039-5.92,1.119c-0.4,0-0.8,0-1.28,0
		c-0.4,0-0.72,0-1.2,0h-3.6c-1.36,0-2.4-1.039-2.4-2.399s1.04-2.399,2.4-2.399h3.76c0.4,0,0.72,0,1.04,0c0.4,0,0.72,0,1.04,0
		c1.6-0.08,3.2-0.4,4.72-0.881c2.64-0.88,5.68-2.561,8.081-5.439c1.84-2.16,3.12-4.881,3.92-7.761c0.8-2.8,1.12-5.761,1.12-8.8
		v-0.16c0-2.961-0.32-5.92-1.04-8.721c-0.72-2.72-1.92-5.279-3.6-7.439c-1.52-1.92-3.44-3.521-5.6-4.641
		c-2.16-1.12-4.56-1.84-7.12-2.24c-1.04-0.16-2-0.24-3.04-0.32h-2.72c-1.36,0-2.4-1.039-2.4-2.399s1.04-2.399,2.4-2.399h2.8
		L664.101,324.109z"/>
	<path d="M703.3,324.27c1.36,0,2.4,1.039,2.4,2.399v51.201c0,1.36-1.04,2.399-2.4,2.399s-2.4-1.039-2.4-2.399v-51.201
		C700.9,325.309,701.94,324.27,703.3,324.27z M723.94,324.35c8.96,0,14.96,4.879,14.96,14.56c0,9.601-6.08,14.24-14.801,14.24
		h-12.32c-1.36,0-2.4-1.04-2.4-2.399c0-1.36,1.04-2.4,2.4-2.4h12.32c8.001,0,10.001-4.561,10.001-9.521
		c0-5.601-2.479-9.761-10.16-9.761H711.3c-1.36,0-2.4-1.039-2.4-2.399s1.04-2.399,2.4-2.399h12.641V324.35z M715.54,355.47
		c0.88-0.96,2.4-0.96,3.36-0.08l21.92,20.8c0.96,0.881,0.96,2.4,0.08,3.361c-0.88,0.959-2.399,0.959-3.36,0.08l-21.92-20.801
		C714.66,357.949,714.66,356.43,715.54,355.47z"/>
	<path d="M755.219,324.27c1.36,0,2.4,1.039,2.4,2.399v51.201c0,1.36-1.04,2.399-2.4,2.399s-2.4-1.039-2.4-2.399v-51.201
		C752.818,325.309,753.858,324.27,755.219,324.27z"/>
	<path d="M773.698,380.27c-1.36,0-2.4-1.039-2.4-2.399v-35.2c0-1.361,1.04-2.4,2.4-2.4s2.4,1.039,2.4,2.4v35.2
		C776.099,379.23,775.059,380.27,773.698,380.27z M772.418,324.669c1.12-0.72,2.641-0.399,3.36,0.72l34.641,51.201
		c0.72,1.12,0.4,2.641-0.72,3.36s-2.641,0.399-3.36-0.72l-34.641-51.201C770.979,326.909,771.298,325.389,772.418,324.669z
		 M808.339,364.27c-1.36,0-2.4-1.039-2.4-2.4v-35.2c0-1.36,1.04-2.399,2.4-2.399s2.4,1.039,2.4,2.399v35.2
		C810.739,363.23,809.699,364.27,808.339,364.27z"/>
	<path d="M826.658,380.27c-1.36,0-2.4-1.039-2.4-2.399v-51.201c0-1.36,1.04-2.399,2.4-2.399s2.4,1.039,2.4,2.399v51.201
		C829.059,379.23,828.019,380.27,826.658,380.27z M830.979,351.549c-0.96-0.959-0.96-2.479,0-3.439l23.28-23.28
		c0.96-0.96,2.48-0.96,3.44,0s0.96,2.479,0,3.44l-23.281,23.279C833.458,352.51,831.938,352.51,830.979,351.549z M836.179,353.229
		c0.96-0.96,2.479-0.96,3.439,0l22.881,22.88c0.96,0.961,0.96,2.48,0,3.441c-0.96,0.959-2.48,0.959-3.44,0l-22.88-22.881
		C835.219,355.709,835.219,354.189,836.179,353.229z"/>
	<path d="M907.938,365.23c0,4.08-1.841,7.76-4.48,10.24c-1.84,1.76-4.08,2.959-6.4,3.68c-2.32,0.72-4.72,1.039-7.04,1.039h-0.08
		c-2.72,0-5.44-0.399-8-1.279c-2.64-0.88-5.12-2.32-7.12-4.4c-2.8-2.8-4.4-6.64-4.4-10.641c0-0.159,0-0.319,0-0.479
		c0.08-1.36,1.2-2.399,2.561-2.319c1.359,0.08,2.399,1.199,2.399,2.56c0,0,0,0.239,0,0.319c0,2.641,1.12,5.361,3.04,7.281
		c1.44,1.439,3.28,2.56,5.28,3.279c2,0.721,4.16,1.041,6.4,1.041h0.08c1.92,0,3.76-0.24,5.52-0.801
		c1.761-0.561,3.36-1.439,4.641-2.641c1.84-1.76,2.96-4.319,2.96-6.799v-0.16c0-1.36,1.04-2.48,2.4-2.48
		c1.359,0,2.479,1.04,2.479,2.4v0.24L907.938,365.23z M898.018,331.549c-2.479-1.84-5.52-2.4-7.92-2.4h-0.16
		c-1.52,0-2.96,0.24-4.32,0.721c-1.359,0.48-2.64,1.199-3.6,2.16c-1.76,1.76-2.08,3.84-2.16,4.8c-0.08,1.36-1.2,2.399-2.561,2.32
		c-1.359-0.08-2.399-1.2-2.319-2.56c0.08-1.601,0.64-5.041,3.439-7.921c1.521-1.601,3.44-2.72,5.44-3.44
		c1.92-0.64,3.92-0.879,5.84-0.879h0.16c3.761,0,7.601,1.039,10.721,3.359c3.2,2.4,5.6,6.32,5.84,10.721
		c0.08,1.359-0.96,2.479-2.32,2.56c-1.359,0.08-2.479-0.96-2.56-2.319c-0.16-2.961-1.84-5.601-3.92-7.121H898.018z M882.978,344.27
		c2.4,2.48,5.6,3.84,7.68,4.561c3.44,1.279,7.921,2.319,11.44,4.879c0.8,0.561,1.601,1.201,2.32,1.92
		c0.88,0.961,0.8,2.48-0.16,3.361c-0.96,0.879-2.479,0.799-3.36-0.16c-0.479-0.48-1.04-0.961-1.6-1.36c-2.8-2-6.561-2.8-10.32-4.16
		c-3.36-1.2-6.8-2.96-9.521-5.761c-0.8-0.879-1.52-1.84-2.16-2.879c-0.72-1.121-0.399-2.561,0.721-3.281
		c1.12-0.719,2.56-0.399,3.28,0.721c0.479,0.72,1.04,1.439,1.68,2.08V344.27z"/>
</g>
<g>
	<path d="M597.603,287.039c0,6.121-2.76,11.641-6.72,15.359c-2.76,2.641-6.12,4.44-9.6,5.521c-3.48,1.08-7.08,1.56-10.56,1.56h-0.12
		c-4.08,0-8.16-0.6-12-1.92c-3.96-1.32-7.68-3.479-10.68-6.6c-4.2-4.199-6.6-9.959-6.6-15.959c0-0.24,0-0.48,0-0.721
		c0.12-2.039,1.8-3.6,3.84-3.479c2.04,0.119,3.6,1.799,3.6,3.84c0,0,0,0.359,0,0.479c0,3.961,1.68,8.041,4.56,10.92
		c2.16,2.16,4.92,3.84,7.919,4.92c3,1.08,6.24,1.561,9.6,1.561h0.12c2.88,0,5.64-0.36,8.28-1.2c2.64-0.841,5.04-2.16,6.959-3.96
		c2.76-2.641,4.44-6.48,4.44-10.199v-0.24c0-2.04,1.56-3.721,3.6-3.721c2.04,0,3.72,1.561,3.72,3.601v0.36L597.603,287.039z
		 M582.723,236.521c-3.72-2.76-8.279-3.6-11.879-3.6h-0.24c-2.28,0-4.44,0.359-6.48,1.08c-2.04,0.721-3.959,1.8-5.4,3.24
		c-2.64,2.64-3.12,5.76-3.24,7.199c-0.12,2.04-1.8,3.6-3.84,3.48c-2.04-0.121-3.6-1.801-3.48-3.84c0.12-2.4,0.96-7.561,5.16-11.88
		c2.28-2.399,5.16-4.08,8.16-5.159c2.88-0.961,5.879-1.32,8.759-1.32h0.24c5.64,0,11.399,1.56,16.079,5.039
		c4.8,3.6,8.4,9.48,8.76,16.08c0.12,2.039-1.44,3.719-3.479,3.84c-2.04,0.119-3.72-1.44-3.84-3.48
		c-0.24-4.439-2.76-8.399-5.88-10.68H582.723z M560.164,255.602c3.6,3.719,8.399,5.76,11.52,6.84
		c5.16,1.92,11.879,3.479,17.159,7.318c1.2,0.841,2.4,1.801,3.479,2.881c1.32,1.439,1.2,3.72-0.24,5.039
		c-1.44,1.32-3.72,1.201-5.04-0.24c-0.72-0.719-1.56-1.439-2.4-2.039c-4.2-3-9.839-4.199-15.479-6.24
		c-5.04-1.799-10.2-4.439-14.28-8.639c-1.2-1.32-2.28-2.76-3.24-4.32c-1.08-1.68-0.6-3.84,1.08-4.92s3.84-0.6,4.92,1.08
		c0.72,1.08,1.56,2.16,2.52,3.119V255.602z"/>
	<path d="M612.363,308.759c-1.439-1.319-1.56-3.6-0.24-5.04l28.679-30.959c1.32-1.439,3.6-1.559,5.04-0.239s1.56,3.6,0.24,5.04
		l-28.679,30.959C616.083,309.959,613.804,310.078,612.363,308.759z M692.28,308.639c-1.44,1.32-3.72,1.2-5.04-0.24l-70.197-76.797
		c-1.32-1.439-1.2-3.719,0.24-5.039s3.72-1.2,5.04,0.24l70.197,76.797C693.84,305.039,693.72,307.318,692.28,308.639z
		 M660.242,256.682c-1.44-1.32-1.56-3.601-0.24-5.041l22.799-24.719c1.32-1.439,3.6-1.56,5.04-0.24c1.44,1.32,1.56,3.601,0.24,5.041
		l-22.799,24.719C663.961,257.881,661.682,258.001,660.242,256.682z"/>
</g>
<g>
	<g>
	</g>
	<g>
		<g>
			<path fill="#1CAEE6" d="M675.782,75.452c-20.939,10.634-41.878,21.268-62.817,31.902c-5.514,2.8-6.766,8.172-5.75,14.011
				c0.898,5.166,4.366,7.547,8.814,9.24c11.416,4.342,22.834,8.679,34.25,13.023c26.13,9.945,52.52,19.427,78.355,30.121
				c7.34,3.038,14.028,8.519,17.905,16.212c3.864,7.671,7.729,15.341,11.604,23.006c5.063,10.018,10.141,20.027,15.255,30.02
				c4.361,8.522,10.683,17.087,6.522,26.912c-3.048,7.197-9.427,12.511-15.074,17.638c-2.29,2.078-8.067,6.922-4.167,10.212
				c3.938,3.32,12.012-1.016,15.797-2.629c6.594-2.81,13.002-6.048,19.312-9.441c8.142-4.379,16.402-8.73,24.777-12.64
				c5.549-2.589,11.015-5.369,16.373-8.332c4.756-2.63,12.422-6.043,14.96-11.239c2.602-5.328-3.973-5.959-7.43-5.455
				c-7.625,1.111-14.839,3.332-22.65,2.788c-11.277-0.783-15.131-9.612-19.61-18.536c-5.01-9.979-10.072-19.934-15.144-29.884
				c-4.177-8.195-8.366-16.385-12.558-24.573c-0.95-1.856-1.901-3.711-2.848-5.569c-2.847-5.586-1.889-13.862-0.581-19.711
				c2.196-9.826,5.128-19.531,7.759-29.246c7.821-28.884,15.754-57.738,23.667-86.597c1.217-4.435,1.705-7.784-0.413-12.25
				c-3.454-7.281-11.161-10.461-18.296-6.837c-6.382,3.241-12.765,6.482-19.147,9.724c-22.474,11.413-44.948,22.825-67.42,34.24
				c-2.875,1.46-0.344,5.774,2.523,4.317c25.964-13.188,51.93-26.373,77.895-39.559c2.493-1.266,4.986-2.532,7.479-3.798
				c2.889-1.467,5.153-2.354,8.305-0.544c3.11,1.786,6.148,6.45,5.149,10.109c-2.733,10.01-5.49,20.014-8.232,30.021
				c-7.854,28.658-15.921,57.276-23.335,86.052c-1.895,7.354-2.654,14.931-1.172,22.443c1.093,5.537,5.092,11.173,7.619,16.112
				c9.591,18.745,19.191,37.488,28.566,56.342c8.366,16.823,27.481,12.855,42.457,10.002c1.105-0.21,2.201-0.368,3.327-0.373
				c0.69-0.003,0.225-2.03-0.842-0.785c-2.187,2.554-5.474,4.321-8.306,6.039c-6.123,3.712-12.562,6.934-19.018,10.023
				c-8.339,3.99-16.726,8.093-24.822,12.55c-5.364,2.952-10.834,5.727-16.387,8.305c-3.402,1.58-6.864,3.046-10.441,4.183
				c-1.191,0.379-2.43,0.725-3.68,0.821c-0.884,0.068-0.253,1.736,0.501,0.787c4.184-5.264,10.059-9.089,14.376-14.312
				c5.071-6.135,8.047-13.249,6.93-21.268c-0.599-4.297-3.071-8.193-5.022-11.979c-2.546-4.938-5.073-9.887-7.596-14.837
				c-5.015-9.843-10-19.7-14.978-29.562c-3.089-6.121-6.168-12.246-9.258-18.366c-3.745-7.418-12.119-12.386-19.53-15.454
				c-10.216-4.229-20.612-8.054-30.934-12.012c-27.236-10.443-54.508-20.792-81.771-31.163c-1.185-0.451-2.274-0.75-3.216-1.639
				c-3.027-2.854-2.899-10.026,0.909-11.96c3.141-1.595,6.283-3.191,9.424-4.786c13.746-6.98,27.491-13.961,41.236-20.942
				c4.307-2.187,8.614-4.375,12.921-6.562C681.181,78.309,678.65,73.995,675.782,75.452L675.782,75.452z"/>
		</g>
	</g>
	<g>
		<g>
			<path fill="#FF8F15" d="M649.013,40.215c28.067,24.747,56.135,49.494,84.203,74.24c2.408,2.124,5.958-1.399,3.535-3.535
				c-28.067-24.747-56.135-49.494-84.203-74.24C650.14,34.556,646.589,38.079,649.013,40.215L649.013,40.215z"/>
		</g>
	</g>
	<g>
		<g>
			<path fill="#14ED65" d="M727.939,93.676c18.186-1.483,28.851,19.713,16.111,33.081c-5.502,5.773-14.428,6.947-21.568,3.898
				c-9.289-3.967-13.127-14.498-10.467-23.846c0.885-3.107-3.94-4.425-4.821-1.329c-6.75,23.712,20.655,41.111,39.418,25.716
				c7.999-6.562,10.018-18.277,6.338-27.584c-3.973-10.049-14.469-15.797-25.011-14.937
				C724.749,88.936,724.724,93.938,727.939,93.676L727.939,93.676z"/>
		</g>
	</g>
</g>
<g>
	<path d="M272.603,107.981c0,6.12-2.76,11.64-6.72,15.359c-2.76,2.64-6.12,4.44-9.6,5.52c-3.48,1.08-7.08,1.56-10.56,1.56h-0.12
		c-4.08,0-8.16-0.6-12-1.92c-3.96-1.32-7.68-3.48-10.68-6.6c-4.2-4.2-6.6-9.96-6.6-15.959c0-0.24,0-0.48,0-0.72
		c0.12-2.04,1.8-3.6,3.84-3.479c2.04,0.12,3.6,1.8,3.6,3.84c0,0,0,0.36,0,0.479c0,3.96,1.68,8.04,4.56,10.92
		c2.16,2.16,4.92,3.84,7.919,4.92c3,1.08,6.24,1.56,9.6,1.56h0.12c2.88,0,5.64-0.36,8.28-1.2c2.64-0.84,5.04-2.16,6.959-3.96
		c2.76-2.64,4.44-6.48,4.44-10.2v-0.24c0-2.04,1.56-3.72,3.6-3.72c2.04,0,3.72,1.56,3.72,3.6v0.36L272.603,107.981z M257.723,57.463
		c-3.72-2.76-8.279-3.6-11.879-3.6h-0.24c-2.28,0-4.44,0.36-6.48,1.08c-2.04,0.72-3.959,1.8-5.4,3.24c-2.64,2.64-3.12,5.76-3.24,7.2
		c-0.12,2.04-1.8,3.6-3.84,3.48c-2.04-0.12-3.6-1.8-3.48-3.84c0.12-2.4,0.96-7.56,5.16-11.879c2.28-2.4,5.16-4.08,8.16-5.16
		c2.88-0.96,5.879-1.32,8.759-1.32h0.24c5.64,0,11.399,1.56,16.079,5.04c4.8,3.6,8.4,9.479,8.76,16.079
		c0.12,2.04-1.44,3.72-3.479,3.84c-2.04,0.12-3.72-1.44-3.84-3.479c-0.24-4.44-2.76-8.4-5.88-10.68H257.723z M235.164,76.542
		c3.6,3.72,8.399,5.76,11.52,6.84c5.16,1.92,11.879,3.479,17.159,7.319c1.2,0.84,2.4,1.8,3.479,2.88c1.32,1.44,1.2,3.72-0.24,5.04
		s-3.72,1.2-5.04-0.24c-0.72-0.72-1.56-1.439-2.4-2.04c-4.2-3-9.839-4.2-15.479-6.24c-5.04-1.8-10.2-4.44-14.28-8.64
		c-1.2-1.32-2.28-2.76-3.24-4.32c-1.08-1.68-0.6-3.84,1.08-4.92s3.84-0.6,4.92,1.08c0.72,1.08,1.56,2.16,2.52,3.12V76.542z"/>
	<path d="M287.363,129.7c-1.439-1.32-1.56-3.6-0.24-5.04l28.679-30.959c1.32-1.44,3.6-1.56,5.04-0.24s1.56,3.6,0.24,5.04
		l-28.679,30.959C291.083,130.9,288.804,131.02,287.363,129.7z M367.28,129.581c-1.44,1.32-3.72,1.2-5.04-0.24l-70.197-76.797
		c-1.32-1.44-1.2-3.72,0.24-5.04c1.44-1.32,3.72-1.2,5.04,0.24l70.197,76.797C368.84,125.98,368.72,128.26,367.28,129.581z
		 M335.242,77.623c-1.44-1.32-1.56-3.6-0.24-5.04l22.799-24.719c1.32-1.44,3.6-1.56,5.04-0.24c1.44,1.32,1.56,3.6,0.24,5.04
		l-22.799,24.719C338.961,78.822,336.682,78.942,335.242,77.623z"/>
</g>
<g>
	<g>
	</g>
	<g>
		<g>
			<path fill="#1CAEE6" d="M77.782,69.452c-20.939,10.634-41.878,21.268-62.818,31.901c-5.514,2.8-6.766,8.173-5.75,14.011
				c0.898,5.166,4.367,7.546,8.815,9.239c11.416,4.343,22.834,8.679,34.249,13.024c26.13,9.945,52.52,19.426,78.356,30.121
				c7.339,3.038,14.028,8.519,17.904,16.212c3.865,7.67,7.73,15.341,11.605,23.006c5.063,10.018,10.141,20.028,15.254,30.02
				c4.361,8.522,10.683,17.087,6.523,26.912c-3.048,7.197-9.426,12.511-15.075,17.638c-2.289,2.078-8.067,6.922-4.166,10.212
				c3.938,3.32,12.011-1.016,15.796-2.629c6.594-2.81,13.002-6.048,19.312-9.441c8.142-4.379,16.402-8.73,24.778-12.64
				c5.548-2.589,11.014-5.369,16.373-8.332c4.755-2.63,12.422-6.043,14.96-11.239c2.602-5.328-3.973-5.959-7.43-5.455
				c-7.625,1.111-14.839,3.332-22.651,2.788c-11.277-0.783-15.13-9.612-19.61-18.536c-5.01-9.979-10.073-19.934-15.143-29.883
				c-4.177-8.196-8.366-16.385-12.558-24.573c-0.95-1.855-1.901-3.71-2.848-5.568c-2.846-5.586-1.888-13.863-0.581-19.711
				c2.197-9.826,5.128-19.531,7.759-29.246c7.821-28.884,15.753-57.738,23.667-86.597c1.216-4.435,1.704-7.784-0.414-12.25
				c-3.454-7.281-11.16-10.461-18.295-6.837c-6.382,3.241-12.765,6.482-19.147,9.724c-22.474,11.413-44.949,22.823-67.42,34.24
				c-2.875,1.461-0.344,5.774,2.523,4.317c25.963-13.19,51.93-26.373,77.895-39.559c2.493-1.266,4.985-2.532,7.478-3.798
				c2.889-1.467,5.153-2.354,8.305-0.544c3.11,1.786,6.148,6.45,5.149,10.109c-2.733,10.01-5.49,20.014-8.232,30.021
				c-7.854,28.658-15.921,57.276-23.334,86.052c-1.895,7.354-2.655,14.932-1.172,22.443c1.093,5.537,5.091,11.173,7.619,16.112
				c9.591,18.745,19.191,37.488,28.567,56.342c8.366,16.823,27.48,12.855,42.457,10.002c1.105-0.21,2.201-0.368,3.328-0.373
				c0.689-0.003,0.224-2.03-0.842-0.785c-2.187,2.554-5.474,4.321-8.306,6.039c-6.124,3.712-12.562,6.934-19.018,10.023
				c-8.339,3.99-16.726,8.093-24.823,12.55c-5.364,2.952-10.833,5.727-16.386,8.305c-3.403,1.58-6.864,3.046-10.441,4.183
				c-1.191,0.379-2.43,0.725-3.68,0.821c-0.884,0.068-0.253,1.736,0.501,0.787c4.183-5.264,10.059-9.089,14.376-14.312
				c5.071-6.135,8.046-13.249,6.929-21.268c-0.599-4.297-3.071-8.193-5.022-11.979c-2.545-4.938-5.072-9.887-7.595-14.837
				c-5.016-9.843-10-19.7-14.978-29.562c-3.089-6.12-6.167-12.246-9.258-18.365c-3.746-7.418-12.119-12.386-19.53-15.454
				c-10.216-4.229-20.612-8.055-30.934-12.013c-27.236-10.443-54.508-20.791-81.771-31.163c-1.185-0.451-2.275-0.751-3.217-1.639
				c-3.027-2.854-2.899-10.026,0.908-11.96c3.142-1.595,6.283-3.191,9.424-4.786c13.746-6.98,27.491-13.961,41.236-20.941
				c4.308-2.188,8.615-4.375,12.922-6.562C83.181,72.309,80.65,67.995,77.782,69.452L77.782,69.452z"/>
		</g>
	</g>
	<g>
		<g>
			<path fill="#FF8F15" d="M51.013,34.215c28.067,24.747,56.135,49.494,84.203,74.24c2.408,2.124,5.958-1.399,3.535-3.535
				c-28.067-24.747-56.135-49.494-84.203-74.24C52.14,28.556,48.589,32.079,51.013,34.215L51.013,34.215z"/>
		</g>
	</g>
	<g>
		<g>
			<path fill="#14ED65" d="M129.939,87.676c18.186-1.483,28.851,19.713,16.112,33.081c-5.502,5.773-14.429,6.948-21.569,3.899
				c-9.29-3.967-13.128-14.498-10.466-23.846c0.885-3.107-3.94-4.425-4.821-1.329c-6.751,23.713,20.655,41.111,39.418,25.716
				c7.998-6.562,10.018-18.277,6.338-27.583c-3.974-10.049-14.469-15.797-25.011-14.938
				C126.749,82.936,126.724,87.938,129.939,87.676L129.939,87.676z"/>
		</g>
	</g>
</g>
<g>
	<rect x="210.98" y="153.845" fill="none" width="322.778" height="103.889"/>
	<path d="M220.1,153.844c1.36,0,2.4,1.04,2.4,2.4v51.202c0,1.359-1.04,2.4-2.4,2.4c-1.36,0-2.4-1.041-2.4-2.4v-51.202
		C217.7,154.884,218.74,153.844,220.1,153.844z M230.101,153.844c1.2,0.08,2.48,0.16,3.68,0.32c2.96,0.48,5.92,1.36,8.641,2.8
		c2.72,1.44,5.2,3.44,7.12,5.92c2.16,2.72,3.6,5.92,4.48,9.2c0.88,3.28,1.2,6.64,1.2,9.92v0.16c0,3.36-0.32,6.8-1.2,10.16
		c-0.96,3.44-2.48,6.8-4.8,9.6c-3.04,3.681-6.88,5.841-10.32,6.96c-1.92,0.641-3.92,1.04-5.92,1.12c-0.4,0-0.8,0-1.28,0
		c-0.4,0-0.72,0-1.2,0h-3.6c-1.36,0-2.4-1.04-2.4-2.399c0-1.36,1.04-2.4,2.4-2.4h3.76c0.4,0,0.72,0,1.04,0c0.4,0,0.72,0,1.04,0
		c1.6-0.08,3.2-0.4,4.72-0.881c2.64-0.879,5.68-2.56,8.081-5.439c1.84-2.16,3.12-4.88,3.92-7.76c0.8-2.8,1.12-5.76,1.12-8.8v-0.16
		c0-2.96-0.32-5.92-1.04-8.72c-0.72-2.72-1.92-5.28-3.6-7.44c-1.52-1.92-3.44-3.52-5.6-4.64c-2.16-1.12-4.56-1.84-7.12-2.24
		c-1.04-0.16-2-0.24-3.04-0.32h-2.72c-1.36,0-2.4-1.04-2.4-2.4s1.04-2.4,2.4-2.4h2.8L230.101,153.844z"/>
	<path d="M269.3,154.004c1.36,0,2.4,1.04,2.4,2.4v51.202c0,1.359-1.04,2.399-2.4,2.399s-2.4-1.04-2.4-2.399v-51.202
		C266.9,155.044,267.94,154.004,269.3,154.004z M289.94,154.084c8.96,0,14.96,4.88,14.96,14.56c0,9.6-6.08,14.24-14.8,14.24h-12.32
		c-1.36,0-2.4-1.04-2.4-2.4s1.04-2.4,2.4-2.4h12.32c8,0,10-4.56,10-9.521c0-5.6-2.48-9.76-10.16-9.76H277.3
		c-1.36,0-2.4-1.04-2.4-2.4s1.04-2.4,2.4-2.4h12.641V154.084z M281.54,185.205c0.88-0.96,2.4-0.96,3.36-0.08l21.92,20.8
		c0.96,0.88,0.96,2.4,0.08,3.36s-2.399,0.96-3.36,0.08l-21.92-20.801C280.66,187.685,280.66,186.165,281.54,185.205z"/>
	<path d="M321.219,154.004c1.36,0,2.4,1.04,2.4,2.4v51.202c0,1.359-1.04,2.399-2.4,2.399s-2.4-1.04-2.4-2.399v-51.202
		C318.818,155.044,319.858,154.004,321.219,154.004z"/>
	<path d="M339.698,210.005c-1.36,0-2.4-1.04-2.4-2.399v-35.201c0-1.36,1.04-2.4,2.4-2.4s2.4,1.04,2.4,2.4v35.201
		C342.099,208.965,341.059,210.005,339.698,210.005z M338.418,154.404c1.12-0.72,2.641-0.4,3.36,0.72l34.641,51.201
		c0.72,1.121,0.4,2.641-0.72,3.361c-1.12,0.72-2.641,0.399-3.36-0.721l-34.641-51.201
		C336.979,156.644,337.298,155.124,338.418,154.404z M374.339,194.005c-1.36,0-2.4-1.04-2.4-2.4v-35.201c0-1.36,1.04-2.4,2.4-2.4
		s2.4,1.04,2.4,2.4v35.201C376.739,192.965,375.699,194.005,374.339,194.005z"/>
	<path d="M392.658,210.005c-1.36,0-2.4-1.04-2.4-2.399v-51.202c0-1.36,1.04-2.4,2.4-2.4s2.4,1.04,2.4,2.4v51.202
		C395.059,208.965,394.019,210.005,392.658,210.005z M396.979,181.284c-0.96-0.96-0.96-2.48,0-3.44l23.28-23.28
		c0.96-0.96,2.48-0.96,3.44,0c0.96,0.96,0.96,2.48,0,3.44l-23.281,23.28C399.458,182.245,397.938,182.245,396.979,181.284z
		 M402.179,182.964c0.96-0.96,2.479-0.96,3.439,0l22.881,22.88c0.96,0.96,0.96,2.48,0,3.44s-2.48,0.96-3.44,0l-22.88-22.881
		C401.219,185.444,401.219,183.924,402.179,182.964z"/>
	<path d="M473.938,194.965c0,4.08-1.841,7.76-4.48,10.24c-1.84,1.76-4.08,2.96-6.4,3.68c-2.32,0.721-4.72,1.04-7.04,1.04h-0.08
		c-2.72,0-5.44-0.399-8-1.28c-2.64-0.879-5.12-2.32-7.12-4.399c-2.8-2.8-4.4-6.64-4.4-10.641c0-0.16,0-0.32,0-0.48
		c0.08-1.36,1.2-2.4,2.561-2.32c1.359,0.08,2.399,1.2,2.399,2.56c0,0,0,0.24,0,0.32c0,2.64,1.12,5.36,3.04,7.28
		c1.44,1.439,3.28,2.561,5.28,3.28s4.16,1.04,6.4,1.04h0.08c1.92,0,3.76-0.24,5.52-0.801c1.761-0.56,3.36-1.439,4.641-2.64
		c1.84-1.76,2.96-4.32,2.96-6.8v-0.16c0-1.36,1.04-2.48,2.4-2.48c1.359,0,2.479,1.04,2.479,2.4v0.24L473.938,194.965z
		 M464.018,161.284c-2.479-1.84-5.52-2.4-7.92-2.4h-0.16c-1.52,0-2.96,0.24-4.32,0.72c-1.359,0.48-2.64,1.2-3.6,2.16
		c-1.76,1.76-2.08,3.84-2.16,4.8c-0.08,1.36-1.2,2.4-2.561,2.32c-1.359-0.08-2.399-1.2-2.319-2.56c0.08-1.6,0.64-5.041,3.439-7.92
		c1.521-1.6,3.44-2.72,5.44-3.44c1.92-0.64,3.92-0.88,5.84-0.88h0.16c3.761,0,7.601,1.04,10.721,3.36c3.2,2.4,5.6,6.32,5.84,10.72
		c0.08,1.36-0.96,2.48-2.32,2.56c-1.359,0.08-2.479-0.96-2.56-2.32c-0.16-2.96-1.84-5.6-3.92-7.121H464.018z M448.978,174.004
		c2.4,2.48,5.6,3.84,7.68,4.56c3.44,1.28,7.921,2.32,11.44,4.88c0.8,0.56,1.601,1.2,2.32,1.92c0.88,0.96,0.8,2.48-0.16,3.36
		s-2.479,0.8-3.36-0.16c-0.479-0.48-1.04-0.96-1.6-1.36c-2.8-2-6.561-2.8-10.32-4.16c-3.36-1.2-6.8-2.96-9.521-5.76
		c-0.8-0.88-1.52-1.84-2.16-2.88c-0.72-1.12-0.399-2.56,0.721-3.28c1.12-0.72,2.56-0.4,3.28,0.72c0.479,0.72,1.04,1.44,1.68,2.08
		V174.004z"/>
</g>
</svg>
