<svg version="1.1" xmlns="http://www.w3.org/2000/svg" xmlns:xlink="http://www.w3.org/1999/xlink" viewBox="0 0 293.445 293.445" ><title>SXDrinks</title><desc>The logo of SXDrinks. It is a martini glass</desc>
  <path fill="#1CAEE6" d="M89.672,67.451C68.733,78.085,47.793,88.719,26.854,99.353c-5.514,2.801-6.766,8.174-5.75,14.012   c0.898,5.166,4.366,7.547,8.814,9.239c11.416,4.343,22.834,8.679,34.25,13.023c26.13,9.945,52.52,19.427,78.356,30.121   c7.339,3.038,14.028,8.52,17.904,16.213c3.865,7.67,7.73,15.341,11.605,23.006c5.063,10.018,10.141,20.027,15.254,30.02   c4.361,8.522,10.683,17.087,6.523,26.912c-3.048,7.197-9.426,12.511-15.075,17.638c-2.289,2.078-8.067,6.922-4.166,10.212   c3.938,3.32,12.011-1.016,15.796-2.629c6.594-2.81,13.002-6.048,19.312-9.441c8.142-4.379,16.402-8.73,24.778-12.64   c5.548-2.589,11.014-5.369,16.373-8.332c4.755-2.63,12.422-6.043,14.96-11.239c2.602-5.328-3.973-5.959-7.43-5.455   c-7.625,1.111-14.839,3.332-22.651,2.789c-11.277-0.784-15.13-9.613-19.61-18.537c-5.01-9.979-10.073-19.934-15.143-29.884   c-4.177-8.195-8.366-16.385-12.558-24.572c-0.95-1.856-1.901-3.711-2.848-5.568c-2.847-5.587-1.888-13.863-0.581-19.712   c2.197-9.826,5.128-19.531,7.759-29.246c7.821-28.884,15.753-57.737,23.667-86.597c1.216-4.435,1.704-7.783-0.414-12.25   c-3.454-7.281-11.16-10.461-18.295-6.837c-6.382,3.241-12.765,6.482-19.147,9.724c-22.474,11.413-44.947,22.827-67.421,34.239   c-2.875,1.46-0.344,5.773,2.523,4.316c25.966-13.185,51.93-26.372,77.896-39.558c2.493-1.267,4.985-2.532,7.478-3.798   c2.889-1.467,5.153-2.354,8.305-0.544c3.11,1.785,6.148,6.45,5.149,10.109c-2.733,10.01-5.49,20.014-8.232,30.021   c-7.854,28.658-15.921,57.275-23.334,86.052c-1.895,7.354-2.655,14.932-1.172,22.443c1.093,5.537,5.091,11.173,7.619,16.112   c9.591,18.745,19.191,37.488,28.567,56.342c8.366,16.823,27.48,12.855,42.457,10.002c1.105-0.21,2.201-0.368,3.328-0.373   c0.689-0.003,0.224-2.03-0.842-0.785c-2.187,2.554-5.474,4.321-8.306,6.039c-6.124,3.712-12.562,6.934-19.018,10.023   c-8.338,3.99-16.726,8.093-24.823,12.55c-5.364,2.952-10.833,5.727-16.386,8.305c-3.403,1.58-6.864,3.045-10.441,4.183   c-1.191,0.379-2.43,0.725-3.68,0.821c-0.884,0.068-0.253,1.736,0.501,0.787c4.183-5.264,10.059-9.089,14.376-14.312   c5.071-6.135,8.046-13.249,6.929-21.268c-0.599-4.297-3.071-8.193-5.022-11.979c-2.546-4.938-5.072-9.887-7.595-14.837   c-5.016-9.843-10-19.7-14.978-29.562c-3.089-6.12-6.167-12.246-9.258-18.365c-3.746-7.418-12.119-12.386-19.53-15.454   c-10.216-4.229-20.612-8.054-30.934-12.012c-27.236-10.444-54.508-20.792-81.771-31.163c-1.185-0.451-2.274-0.751-3.216-1.64   c-3.027-2.854-2.899-10.026,0.909-11.96c3.141-1.596,6.283-3.19,9.424-4.786c13.746-6.98,27.491-13.961,41.236-20.941   c4.307-2.188,8.614-4.375,12.921-6.562C95.071,70.309,92.54,65.995,89.672,67.451L89.672,67.451z"/>
  <path fill="#FF8F15" d="M62.902,32.215c28.067,24.747,56.135,49.494,84.203,74.24c2.408,2.124,5.958-1.399,3.535-3.535     c-28.067-24.747-56.135-49.494-84.203-74.24C64.029,26.556,60.479,30.079,62.902,32.215L62.902,32.215z"/>
  <path fill="#14ED65" d="M141.829,85.676c18.186-1.483,28.851,19.713,16.112,33.08c-5.502,5.773-14.429,6.948-21.568,3.899	c-9.29-3.967-13.128-14.498-10.467-23.846c0.885-3.108-3.94-4.426-4.821-1.33c-6.75,23.713,20.655,41.112,39.418,25.717		c7.998-6.562,10.018-18.277,6.338-27.583c-3.974-10.049-14.469-15.798-25.011-14.938	C138.639,80.936,138.613,85.938,141.829,85.676L141.829,85.676z"/>
</svg>
